<?xml version="1.0" standalone="no"?>
<!DOCTYPE svg PUBLIC "-//W3C//DTD SVG 20010904//EN"
 "http://www.w3.org/TR/2001/REC-SVG-20010904/DTD/svg10.dtd">
<svg version="1.0" xmlns="http://www.w3.org/2000/svg"
 width="200.000000pt" height="200.000000pt" viewBox="0 0 200.000000 200.000000"
 preserveAspectRatio="xMidYMid meet">
<metadata>
Created by potrace 1.16, written by Peter Selinger 2001-2019
</metadata>
<g transform="translate(0.000000,200.000000) scale(0.100000,-0.100000)"
fill="#000000" stroke="none">
<path d="M725 1091 c-135 -134 -287 -283 -338 -332 l-92 -89 0 -221 c0 -220 0
-221 24 -240 22 -18 48 -19 687 -19 l664 0 32 29 33 29 0 201 0 201 -336 336
c-331 331 -337 336 -383 341 l-46 6 -245 -242z m557 -258 l258 -258 0 -97 0
-98 -525 0 -525 0 0 99 0 99 263 256 c144 141 264 256 267 256 3 0 121 -116
262 -257z"/>
</g>
</svg>
